<svg xmlns="http://www.w3.org/2000/svg" width="675.911" height="204.972" viewBox="0 0 675.911 204.972"><g transform="translate(-11550.044 -4106.474)"><g transform="matrix(0.956, -0.292, 0.292, 0.956, 11524.054, 4138.875)"><g transform="translate(192.33 91.086) rotate(21)"><path d="M27.09,57.526S-2.083,56.425.119,23.4C1.744-.973,3.07-1.063,3.67.615h0Z" transform="translate(12.842 2.673)" fill="#657067"/><path d="M0,57.526s29.173-1.1,26.971-34.126C25.346-.973,24.021-1.063,23.42.615h0Z" transform="matrix(0.719, -0.695, 0.695, 0.719, 0, 18.818)" fill="#657067"/></g><path d="M0,0S42.218,48.15,106.542,82.954c27.058,14.64,82.016,43.358,115.127,47.166" transform="translate(71.51 64.503)" fill="none" stroke="#657067" stroke-linecap="round" stroke-width="10"/><g transform="translate(214.693 241.686) rotate(-110)"><path d="M27.09,57.526S-2.083,56.425.119,23.4C1.744-.973,3.069-1.063,3.67.615h0Z" transform="translate(12.843 2.673)" fill="#657067"/><path d="M0,57.526s29.173-1.1,26.971-34.126C25.346-.973,24.021-1.063,23.42.615h0Z" transform="matrix(0.719, -0.695, 0.695, 0.719, 0, 18.818)" fill="#657067"/></g><g transform="matrix(0.914, 0.407, -0.407, 0.914, 149.489, 65.065)"><path d="M27.09,57.526S-2.083,56.425.119,23.4C1.744-.973,3.07-1.063,3.67.615h0Z" transform="translate(12.842 2.673)" fill="#657067"/><path d="M0,57.526s29.173-1.1,26.971-34.126C25.346-.973,24.021-1.063,23.42.615h0Z" transform="matrix(0.719, -0.695, 0.695, 0.719, 0, 18.818)" fill="#657067"/></g><g transform="matrix(0.966, 0.259, -0.259, 0.966, 96.207, 39.587)"><path d="M27.09,57.526S-2.083,56.425.119,23.4C1.744-.973,3.07-1.063,3.67.615h0Z" transform="translate(12.843 2.673)" fill="#657067"/><path d="M0,57.526s29.173-1.1,26.971-34.126C25.346-.973,24.021-1.063,23.42.615h0Z" transform="matrix(0.719, -0.695, 0.695, 0.719, 0, 18.818)" fill="#657067"/></g><g transform="matrix(0.914, 0.407, -0.407, 0.914, 62.709, 0)"><path d="M27.09,57.526S-2.083,56.425.119,23.4C1.744-.973,3.07-1.063,3.67.615h0Z" transform="translate(12.842 2.673)" fill="#657067"/><path d="M0,57.526s29.173-1.1,26.971-34.126C25.346-.973,24.021-1.063,23.42.615h0Z" transform="matrix(0.719, -0.695, 0.695, 0.719, 0, 18.818)" fill="#657067"/></g><g transform="matrix(0.454, -0.891, 0.891, 0.454, 0, 77.322)"><path d="M27.09,57.526S-2.083,56.425.119,23.4C1.744-.973,3.069-1.063,3.67.615h0Z" transform="translate(12.843 2.673)" fill="#657067"/><path d="M0,57.526s29.173-1.1,26.971-34.126C25.346-.973,24.021-1.063,23.42.615h0Z" transform="matrix(0.719, -0.695, 0.695, 0.719, 0, 18.818)" fill="#657067"/></g><g transform="translate(41.408 134.752) rotate(-98)"><path d="M27.09,57.526S-2.083,56.425.119,23.4C1.744-.973,3.069-1.063,3.67.615h0Z" transform="translate(12.843 2.673)" fill="#657067"/><path d="M0,57.526s29.173-1.1,26.971-34.126C25.346-.973,24.021-1.063,23.42.615h0Z" transform="matrix(0.719, -0.695, 0.695, 0.719, 0, 18.818)" fill="#657067"/></g><g transform="translate(75.35 165.236) rotate(-98)"><path d="M27.09,57.526S-2.083,56.425.119,23.4C1.744-.973,3.069-1.063,3.67.615h0Z" transform="translate(12.843 2.673)" fill="#657067"/><path d="M0,57.526s29.173-1.1,26.971-34.126C25.346-.973,24.021-1.063,23.42.615h0Z" transform="matrix(0.719, -0.695, 0.695, 0.719, 0, 18.818)" fill="#657067"/></g><g transform="translate(118.335 193.56) rotate(-98)"><path d="M27.09,57.526S-2.083,56.425.119,23.4C1.744-.973,3.069-1.063,3.67.615h0Z" transform="translate(12.843 2.673)" fill="#657067"/><path d="M0,57.526s29.173-1.1,26.971-34.126C25.346-.973,24.021-1.063,23.42.615h0Z" transform="matrix(0.719, -0.695, 0.695, 0.719, 0, 18.818)" fill="#657067"/></g><g transform="translate(161.902 217.891) rotate(-98)"><path d="M27.09,57.526S-2.083,56.425.119,23.4C1.744-.973,3.069-1.063,3.67.615h0Z" transform="translate(12.843 2.673)" fill="#657067"/><path d="M0,57.526s29.173-1.1,26.971-34.126C25.346-.973,24.021-1.063,23.42.615h0Z" transform="matrix(0.719, -0.695, 0.695, 0.719, 0, 18.818)" fill="#657067"/></g><g transform="translate(239.369 111.892) rotate(21)"><path d="M27.09,57.526S-2.083,56.425.119,23.4C1.744-.973,3.07-1.063,3.67.615h0Z" transform="translate(12.842 2.673)" fill="#657067"/><path d="M0,57.526s29.173-1.1,26.971-34.126C25.346-.973,24.021-1.063,23.42.615h0Z" transform="matrix(0.719, -0.695, 0.695, 0.719, 0, 18.818)" fill="#657067"/></g></g><g transform="matrix(-0.956, -0.292, 0.292, -0.956, 12181.283, 4370)"><g transform="translate(170.757 94.401) rotate(-21)"><path d="M27.09,0S-2.083,1.1.119,34.126C1.744,58.5,3.07,58.589,3.67,56.911h0Z" transform="translate(12.842 0)" fill="#657067"/><path d="M0,0S29.173,1.1,26.971,34.126C25.346,58.5,24.021,58.589,23.42,56.911h0Z" transform="matrix(0.719, 0.695, -0.695, 0.719, 39.961, 0)" fill="#657067"/></g><path d="M0,130.12s42.217-48.15,106.541-82.954C133.6,32.526,188.557,3.808,221.669,0" transform="translate(71.51 47.064)" fill="none" stroke="#657067" stroke-linecap="round" stroke-width="10"/><g transform="translate(271.261 20.59) rotate(110)"><path d="M27.09,0S-2.083,1.1.119,34.126C1.744,58.5,3.069,58.589,3.67,56.911h0Z" transform="translate(12.843 0)" fill="#657067"/><path d="M0,0S29.173,1.1,26.971,34.126C25.346,58.5,24.021,58.589,23.42,56.911h0Z" transform="matrix(0.719, 0.695, -0.695, 0.719, 39.961, 0)" fill="#657067"/></g><g transform="matrix(0.914, -0.407, 0.407, 0.914, 125.004, 121.628)"><path d="M27.09,0S-2.083,1.1.119,34.126C1.744,58.5,3.07,58.589,3.67,56.911h0Z" transform="translate(12.842 0)" fill="#657067"/><path d="M0,0S29.173,1.1,26.971,34.126C25.346,58.5,24.021,58.589,23.42,56.911h0Z" transform="matrix(0.719, 0.695, -0.695, 0.719, 39.961, 0)" fill="#657067"/></g><g transform="matrix(0.966, -0.259, 0.259, 0.966, 80.627, 143.952)"><path d="M27.09,0S-2.083,1.1.119,34.126C1.744,58.5,3.07,58.589,3.67,56.911h0Z" transform="translate(12.843 0)" fill="#657067"/><path d="M0,0S29.173,1.1,26.971,34.126C25.346,58.5,24.021,58.589,23.42,56.911h0Z" transform="matrix(0.719, 0.695, -0.695, 0.719, 39.961, 0)" fill="#657067"/></g><g transform="matrix(0.914, -0.407, 0.407, 0.914, 38.224, 186.693)"><path d="M27.09,0S-2.083,1.1.119,34.126C1.744,58.5,3.07,58.589,3.67,56.911h0Z" transform="translate(12.842 0)" fill="#657067"/><path d="M0,0S29.173,1.1,26.971,34.126C25.346,58.5,24.021,58.589,23.42,56.911h0Z" transform="matrix(0.719, 0.695, -0.695, 0.719, 39.961, 0)" fill="#657067"/></g><g transform="matrix(0.454, 0.891, -0.891, 0.454, 53.638, 137.035)"><path d="M27.09,0S-2.083,1.1.119,34.126C1.744,58.5,3.069,58.589,3.67,56.911h0Z" transform="translate(12.843 0)" fill="#657067"/><path d="M0,0S29.173,1.1,26.971,34.126C25.346,58.5,24.021,58.589,23.42,56.911h0Z" transform="matrix(0.719, 0.695, -0.695, 0.719, 39.961, 0)" fill="#657067"/></g><g transform="translate(101.021 115.313) rotate(98)"><path d="M27.09,0S-2.083,1.1.119,34.126C1.744,58.5,3.069,58.589,3.67,56.911h0Z" transform="translate(12.843 0)" fill="#657067"/><path d="M0,0S29.173,1.1,26.971,34.126C25.346,58.5,24.021,58.589,23.42,56.911h0Z" transform="matrix(0.719, 0.695, -0.695, 0.719, 39.961, 0)" fill="#657067"/></g><g transform="translate(134.964 84.829) rotate(98)"><path d="M27.09,0S-2.083,1.1.119,34.126C1.744,58.5,3.069,58.589,3.67,56.911h0Z" transform="translate(12.843 0)" fill="#657067"/><path d="M0,0S29.173,1.1,26.971,34.126C25.346,58.5,24.021,58.589,23.42,56.911h0Z" transform="matrix(0.719, 0.695, -0.695, 0.719, 39.961, 0)" fill="#657067"/></g><g transform="translate(177.948 56.504) rotate(98)"><path d="M27.09,0S-2.083,1.1.119,34.126C1.744,58.5,3.069,58.589,3.67,56.911h0Z" transform="translate(12.843 0)" fill="#657067"/><path d="M0,0S29.173,1.1,26.971,34.126C25.346,58.5,24.021,58.589,23.42,56.911h0Z" transform="matrix(0.719, 0.695, -0.695, 0.719, 39.961, 0)" fill="#657067"/></g><g transform="translate(221.516 32.174) rotate(98)"><path d="M27.09,0S-2.083,1.1.119,34.126C1.744,58.5,3.069,58.589,3.67,56.911h0Z" transform="translate(12.843 0)" fill="#657067"/><path d="M0,0S29.173,1.1,26.971,34.126C25.346,58.5,24.021,58.589,23.42,56.911h0Z" transform="matrix(0.719, 0.695, -0.695, 0.719, 39.961, 0)" fill="#657067"/></g><g transform="translate(217.796 73.594) rotate(-21)"><path d="M27.09,0S-2.083,1.1.119,34.126C1.744,58.5,3.07,58.589,3.67,56.911h0Z" transform="translate(12.842 0)" fill="#657067"/><path d="M0,0S29.173,1.1,26.971,34.126C25.346,58.5,24.021,58.589,23.42,56.911h0Z" transform="matrix(0.719, 0.695, -0.695, 0.719, 39.961, 0)" fill="#657067"/></g></g></g></svg>